<?xml version="1.0" encoding="UTF-8"?>
<svg xmlns="http://www.w3.org/2000/svg" xmlns:xlink="http://www.w3.org/1999/xlink" width="404.314pt" height="151.009pt" viewBox="0 0 404.314 151.009" version="1.1">
<defs>
<clipPath id="clip1">
  <path d="M 0 0 L 404.3125 0 L 404.3125 151.007812 L 0 151.007812 Z M 0 0 "/>
</clipPath>
</defs>
<g id="surface1">
<path style=" stroke:none;fill-rule:nonzero;fill:rgb(86.943054%,10.237122%,19.87915%);fill-opacity:1;" d="M 43.394531 81.851562 L 50.878906 77.179688 L 88.804688 112.160156 L 98.613281 112.164062 L 56.925781 73.554688 L 88.816406 51.226562 L 77.519531 51.273438 L 43.378906 74.085938 L 43.378906 19.867188 L 36.066406 19.867188 L 36.066406 112.304688 L 43.316406 112.304688 Z M 43.394531 81.851562 "/>
<path style=" stroke:none;fill-rule:nonzero;fill:rgb(86.943054%,10.237122%,19.87915%);fill-opacity:1;" d="M 115.316406 109.679688 C 120.179688 112.519531 126.070312 114.117188 131.753906 114.117188 C 137.332031 114.117188 143.625 112.347656 148.441406 109.617188 C 153.25 106.886719 154.816406 104.742188 157.691406 101.242188 L 157.753906 111.929688 L 164.191406 111.867188 L 164.378906 51.429688 L 157.691406 51.460938 L 157.691406 62.15625 C 155.21875 58.703125 152.0625 55.90625 147.253906 53.117188 C 142.4375 50.328125 137.332031 49.179688 131.753906 49.179688 C 126.070312 49.179688 120.179688 50.835938 115.316406 53.679688 C 110.449219 56.523438 106.515625 60.398438 103.675781 65.210938 C 100.832031 70.023438 99.148438 76.082031 99.148438 81.761719 C 99.148438 87.449219 100.800781 93.164062 103.644531 97.976562 C 106.484375 102.789062 110.449219 106.835938 115.316406 109.679688 M 109.253906 68.554688 C 111.664062 64.402344 114.796875 61.347656 118.957031 58.945312 C 123.109375 56.539062 127.144531 55.632812 131.753906 55.617188 C 136.003906 55.601562 140.601562 56.585938 144.753906 58.992188 C 148.90625 61.394531 151.84375 64.335938 154.253906 68.492188 C 156.65625 72.648438 157.691406 76.746094 157.691406 81.664062 C 157.691406 86.585938 156.59375 90.835938 154.191406 94.992188 C 151.78125 99.148438 148.71875 101.902344 144.566406 104.304688 C 140.414062 106.710938 136.566406 107.804688 131.753906 107.804688 C 126.839844 107.804688 123.03125 106.710938 118.878906 104.304688 C 114.71875 101.902344 111.664062 98.898438 109.253906 94.742188 C 106.851562 90.585938 105.753906 86.585938 105.753906 81.664062 C 105.753906 76.746094 106.851562 72.710938 109.253906 68.554688 "/>
<path style=" stroke:none;fill-rule:nonzero;fill:rgb(86.943054%,10.237122%,19.87915%);fill-opacity:1;" d="M 192.316406 109.679688 C 197.125 112.519531 202.777344 114.117188 208.351562 114.117188 C 213.601562 114.117188 218.746094 113.039062 223.335938 110.804688 C 227.925781 108.5625 231.996094 105.386719 234.941406 101.117188 C 238.085938 96.554688 239.878906 91.886719 240.472656 85.523438 C 240.542969 84.753906 240.859375 81.054688 240.734375 74.867188 L 240.628906 51.367188 L 234.171875 51.367188 L 234.191406 81.648438 C 234.191406 87 232.976562 91.210938 230.566406 95.367188 C 228.164062 99.527344 225.382812 102.253906 221.335938 104.492188 C 217.289062 106.734375 212.816406 107.742188 208.671875 107.78125 C 204.253906 107.828125 199.746094 106.785156 195.753906 104.492188 C 191.761719 102.195312 189.03125 99.605469 186.628906 95.617188 C 184.222656 91.621094 182.785156 86.957031 182.75 82.257812 L 182.667969 51.367188 L 176.316406 51.367188 L 176.316406 81.664062 C 176.316406 87.351562 177.773438 92.992188 180.566406 97.804688 C 183.351562 102.617188 187.5 106.835938 192.316406 109.679688 "/>
<path style=" stroke:none;fill-rule:nonzero;fill:rgb(86.943054%,10.237122%,19.87915%);fill-opacity:1;" d="M 259.128906 68.761719 C 259.167969 64.886719 260.382812 61.898438 263.523438 59.179688 C 266.171875 56.886719 270.039062 55.449219 275.066406 55.429688 C 280.941406 55.410156 284.941406 57.160156 288.335938 60.410156 L 293.003906 55.929688 C 288.296875 51.054688 282.035156 49.011719 275.253906 49.011719 C 271.761719 49.011719 268.253906 49.597656 265.726562 50.617188 C 262.769531 51.804688 260.695312 53.089844 259.128906 54.535156 L 259.085938 51.136719 L 252.691406 51.136719 L 252.691406 111.992188 L 259.085938 111.992188 Z M 259.128906 68.761719 "/>
<path style=" stroke:none;fill-rule:nonzero;fill:rgb(86.943054%,10.237122%,19.87915%);fill-opacity:1;" d="M 306.546875 139.71875 L 314.191406 139.71875 L 363.503906 39.179688 L 356.234375 39.179688 L 327.148438 99.242188 L 303.023438 50.96875 L 295.691406 50.992188 L 323.398438 106.617188 Z M 306.546875 139.71875 "/>
</g>
</svg>
